<svg width="146" height="24" viewBox="0 0 146 24" fill="none" xmlns="http://www.w3.org/2000/svg">
<path d="M81.2437 2.96249C81.2437 1.34199 82.5598 0.0258837 84.1803 0.0258837C85.8008 0.0258837 87.117 1.34199 87.117 2.96249C87.117 4.583 85.8008 5.8991 84.1803 5.8991C82.5598 5.8991 81.2437 4.583 81.2437 2.96249ZM81.6806 7.9152H86.6801V23.77H81.6806V7.9152Z" fill="black"/>
<path d="M69.0562 8.64942C69.0562 8.64942 70.5441 7.87608 73.074 7.87608C75.6038 7.87608 76.5491 8.64942 76.5491 8.64942V0.0258837H81.5486V23.77H76.5491V11.0214C76.5491 11.0214 75.8222 10.248 74.2278 10.248C72.6335 10.248 71.83 11.0214 71.83 11.0214V23.77H69.0562V8.64942Z" fill="black"/>
<path d="M63.894 7.9152H68.8935V23.77H63.894V7.9152Z" fill="black"/>
<path d="M63.4571 2.96249C63.4571 1.34199 64.7733 0.0258837 66.3938 0.0258837C68.0143 0.0258837 69.3304 1.34199 69.3304 2.96249C69.3304 4.583 68.0143 5.8991 66.3938 5.8991C64.7733 5.8991 63.4571 4.583 63.4571 2.96249Z" fill="black"/>
<path d="M143.214 10.442C143.214 10.442 142.052 7.9152 138.506 7.9152C136.442 7.9152 134.654 8.64942 134.654 10.6359C134.654 13.4346 143.214 12.3552 143.214 17.5963C143.214 21.1647 139.523 23.9634 135.09 23.9634C130.73 23.9634 127.887 21.3585 127.887 21.3585L130.005 18.0776C130.005 18.0776 132.635 20.4107 135.672 20.4107C137.589 20.4107 138.506 19.4879 138.506 18.6054C138.506 15.4242 129.946 16.6975 129.946 11.6066C129.946 7.72012 133.664 4.32736 138.895 4.32736C142.932 4.32736 145.406 6.8542 145.406 6.8542L143.214 10.442Z" fill="black"/>
<path d="M118.308 23.9634C112.989 23.9634 108.714 19.8625 108.714 14.5139C108.714 9.16536 112.989 5.06446 118.308 5.06446C121.588 5.06446 123.705 6.27189 123.705 6.27189V0.0258837H128.705V23.77H123.705V22.562C123.705 22.562 121.588 23.9634 118.308 23.9634ZM118.745 19.295C121.151 19.295 123.705 17.402 123.705 14.5139C123.705 11.6258 121.151 9.73279 118.745 9.73279C116.339 9.73279 113.713 11.6258 113.713 14.5139C113.713 17.402 116.339 19.295 118.745 19.295Z" fill="black"/>
<path d="M90.7528 23.77H95.7523V0.0258837H90.7528V23.77Z" fill="black"/>
<path d="M33.0208 7.9152H38.0204V23.77H33.0208V7.9152Z" fill="black"/>
<path d="M32.584 2.96249C32.584 1.34199 33.9001 0.0258837 35.5206 0.0258837C37.1411 0.0258837 38.4572 1.34199 38.4572 2.96249C38.4572 4.583 37.1411 5.8991 35.5206 5.8991C33.9001 5.8991 32.584 4.583 32.584 2.96249Z" fill="black"/>
<path d="M104.676 7.9152H99.6766V18.3684C99.6766 18.3684 98.5868 19.295 96.8969 19.295C94.711 19.295 94.2741 18.3684 94.2741 18.3684V7.9152H89.2746V19.295C89.2746 19.295 90.4804 23.9634 96.8969 23.9634C99.9389 23.9634 101.947 22.562 101.947 22.562V23.77H104.676V7.9152Z" fill="black"/>
<path d="M52.3424 7.9152H47.3428V18.3684C47.3428 18.3684 46.2531 19.295 44.5632 19.295C42.3773 19.295 41.9404 18.3684 41.9404 18.3684V7.9152H36.9409V19.295C36.9409 19.295 38.1467 23.9634 44.5632 23.9634C47.6051 23.9634 49.6133 22.562 49.6133 22.562V23.77H52.3424V7.9152Z" fill="black"/>
<path d="M0 11.989V23.7699H4.9995L4.9995 11.989C4.9995 11.989 4.9995 9.72759 7.40936 9.72759C9.8192 9.72759 10.4697 11.989 10.4697 11.989V23.7699H15.4692V11.989C15.4692 11.989 15.8298 9.72759 18.2396 9.72759C20.6494 9.72759 21.2999 11.989 21.2999 11.989V23.7699H26.2994V11.989C26.2994 11.989 25.2584 4.32216 18.2396 4.32216C15.1976 4.32216 13.262 5.72371 13.262 5.72371C13.262 5.72371 11.6189 4.32216 7.40936 4.32216C5.29342 4.32216 2.729 5.72371 2.729 5.72371V4.51628H0V11.989Z" fill="black"/>
<path d="M71.83 11.0235C71.83 11.0235 72.6334 10.2502 74.2278 10.2502C75.8221 10.2502 76.5491 11.0235 76.5491 11.0235V23.77H81.5486V7.9152H76.5491V8.65146C76.5491 8.65146 75.6037 7.87812 73.0739 7.87812C70.5441 7.87812 69.0562 8.65146 69.0562 8.65146V23.77H71.83V11.0235Z" fill="black"/>
</svg>